<svg id="visual" viewBox="0 0 900 600" width="900" height="600" xmlns="http://www.w3.org/2000/svg" xmlns:xlink="http://www.w3.org/1999/xlink" version="1.1"><rect x="0" y="0" width="900" height="600" fill="#181c2c"></rect><path d="M0 359L21.5 361.5C43 364 86 369 128.8 368C171.7 367 214.3 360 257.2 372.2C300 384.3 343 415.7 385.8 429.7C428.7 443.7 471.3 440.3 514.2 440.2C557 440 600 443 642.8 431.8C685.7 420.7 728.3 395.3 771.2 391.7C814 388 857 406 878.5 415L900 424L900 601L878.5 601C857 601 814 601 771.2 601C728.3 601 685.7 601 642.8 601C600 601 557 601 514.2 601C471.3 601 428.7 601 385.8 601C343 601 300 601 257.2 601C214.3 601 171.7 601 128.8 601C86 601 43 601 21.5 601L0 601Z" fill="#c62368"></path><path d="M0 473L21.5 463C43 453 86 433 128.8 420.3C171.7 407.7 214.3 402.3 257.2 410.7C300 419 343 441 385.8 441C428.7 441 471.3 419 514.2 412.2C557 405.3 600 413.7 642.8 419.3C685.7 425 728.3 428 771.2 429.8C814 431.7 857 432.3 878.5 432.7L900 433L900 601L878.5 601C857 601 814 601 771.2 601C728.3 601 685.7 601 642.8 601C600 601 557 601 514.2 601C471.3 601 428.7 601 385.8 601C343 601 300 601 257.2 601C214.3 601 171.7 601 128.8 601C86 601 43 601 21.5 601L0 601Z" fill="#e95667"></path><path d="M0 478L21.5 474.3C43 470.7 86 463.3 128.8 459.8C171.7 456.3 214.3 456.7 257.2 460.5C300 464.3 343 471.7 385.8 479C428.7 486.3 471.3 493.7 514.2 488.5C557 483.3 600 465.7 642.8 465C685.7 464.3 728.3 480.7 771.2 491C814 501.3 857 505.7 878.5 507.8L900 510L900 601L878.5 601C857 601 814 601 771.2 601C728.3 601 685.7 601 642.8 601C600 601 557 601 514.2 601C471.3 601 428.7 601 385.8 601C343 601 300 601 257.2 601C214.3 601 171.7 601 128.8 601C86 601 43 601 21.5 601L0 601Z" fill="#fa7268"></path><path d="M0 510L21.5 509C43 508 86 506 128.8 509.2C171.7 512.3 214.3 520.7 257.2 524C300 527.3 343 525.7 385.8 520C428.7 514.3 471.3 504.7 514.2 499.2C557 493.7 600 492.3 642.8 498.7C685.7 505 728.3 519 771.2 518.3C814 517.7 857 502.3 878.5 494.7L900 487L900 601L878.5 601C857 601 814 601 771.2 601C728.3 601 685.7 601 642.8 601C600 601 557 601 514.2 601C471.3 601 428.7 601 385.8 601C343 601 300 601 257.2 601C214.3 601 171.7 601 128.8 601C86 601 43 601 21.5 601L0 601Z" fill="#e95667"></path><path d="M0 542L21.5 540C43 538 86 534 128.8 537C171.7 540 214.3 550 257.2 551.3C300 552.7 343 545.3 385.8 543.5C428.7 541.7 471.3 545.3 514.2 545C557 544.7 600 540.3 642.8 537.7C685.7 535 728.3 534 771.2 536.8C814 539.7 857 546.3 878.5 549.7L900 553L900 601L878.5 601C857 601 814 601 771.2 601C728.3 601 685.7 601 642.8 601C600 601 557 601 514.2 601C471.3 601 428.7 601 385.8 601C343 601 300 601 257.2 601C214.3 601 171.7 601 128.8 601C86 601 43 601 21.5 601L0 601Z" fill="#c62368"></path></svg>